<?xml version="1.0" standalone="no"?><!DOCTYPE svg PUBLIC "-//W3C//DTD SVG 1.1//EN" "http://www.w3.org/Graphics/SVG/1.1/DTD/svg11.dtd"><svg t="1703650604417" class="icon" viewBox="0 0 1024 1024" version="1.1" xmlns="http://www.w3.org/2000/svg" p-id="5175" xmlns:xlink="http://www.w3.org/1999/xlink" width="200" height="200"><path d="M549.3 997.8h-79.2c-199.1 0-362-162.9-362-362s162.9-362 362-362h79.2c199.1 0 362 162.9 362 362s-162.9 362-362 362z" fill="#FFFFFF" p-id="5176"></path><path d="M553.2 1002.6l28.5-4.8c-199.1 0-362-162.9-362-362s162.9-362 362-362l-28.5 4.8c199.1 0 362 162.9 362 362s-162.9 362-362 362z" fill="#9F58BC" p-id="5177"></path><path d="M565.1 1018.9H454.3c-49.2 0-97.1-9.7-142.3-28.9-43.6-18.5-82.7-45-116.4-78.7s-60.1-72.8-78.7-116.4C97.7 749.7 88 701.9 88 652.6v-31.5c0-49.2 9.7-97.1 28.9-142.3 18.5-43.6 45-82.7 78.7-116.4s72.8-60.1 116.4-78.7c45.2-19.2 93-28.9 142.3-28.9h110.8c49.2 0 97.1 9.7 142.3 28.9 43.6 18.5 82.7 45 116.4 78.7s60.1 72.8 78.7 116.4c19.2 45.2 28.9 93 28.9 142.3v31.5c0 49.2-9.7 97.1-28.9 142.3-18.5 43.6-45 82.7-78.7 116.4S751 971.4 707.4 990c-45.2 19.1-93.1 28.9-142.3 28.9zM454.3 294.8c-43.8 0-86.4 8.7-126.6 25.7-38.8 16.5-73.7 40.1-103.8 70.1-30 30-53.6 64.9-70.1 103.8-17.1 40.2-25.7 82.8-25.7 126.6v31.5c0 43.8 8.7 86.4 25.7 126.6 16.5 38.8 40.1 73.7 70.1 103.8 30 30 64.9 53.6 103.8 70.1 40.2 17.1 82.8 25.7 126.6 25.7h110.8c43.8 0 86.4-8.7 126.6-25.7 38.8-16.5 73.7-40.1 103.8-70.1 30-30 53.6-64.9 70.1-103.8 17.1-40.2 25.7-82.8 25.7-126.6V621c0-43.8-8.7-86.4-25.7-126.6-16.5-38.8-40.1-73.7-70.1-103.8-30-30-64.9-53.6-103.8-70.1-40.2-17.1-82.8-25.7-126.6-25.7H454.3z" fill="#424649" p-id="5178"></path><path d="M535.2 932.2c-11 0-20-9-20-20s9-20 20-20c53 0 103.9-16.3 147.1-47.2 42.4-30.2 74.2-71.8 92-120.3 3.8-10.4 15.3-15.7 25.7-11.9 10.4 3.8 15.7 15.3 11.9 25.7-20.6 56.1-57.4 104.2-106.3 139.1-50.2 35.8-109.1 54.6-170.4 54.6z" fill="#424649" p-id="5179"></path><path d="M395.6 87.2l64.8 50.8v129.7l75.3-0.1-5.4-163.4L440.7 29z" fill="#E4EADC" p-id="5180"></path><path d="M440.4 288.7v-140l-72.8-57 70-90.4L550 95.6l6.4 193-116 0.1zM423.6 84.8l56.8 44.5v119.4H515l-4.5-133.9-66.8-56.1-20.1 26.1z" fill="#424649" p-id="5181"></path><path d="M463.3 360.7l-256.5 8.5s8.5-104.3 107.1-138.1 146.6 36.6 146.6 36.6l2.8 93z" fill="#FFFFFF" p-id="5182"></path><path d="M440.8 360.7l-157.5 8.5s5.1-116.7 107.1-138.1c46.2-9.7 47.6 36.6 47.6 36.6l2.8 93zM539.2 358.9l250.9 8.3s-8.3-102.4-104.8-135.6-143.4 36-143.4 36l-2.7 91.3z" fill="#E4EADC" p-id="5183"></path><path d="M185 390.9l1.8-22.3c0.1-1.2 2.6-30.1 18.4-63.4 21.3-44.6 56.6-76.5 102.1-92.1 57.9-19.8 100.7-7.1 126.4 7 27.7 15.3 41.7 35.1 43.2 37.3l3.3 4.8 3.6 118.8-298.8 9.9z m180.3-148c-13.2 0-28.2 2.3-44.9 8-35.2 12.1-61.6 35.7-78.4 70.2-5 10.2-8.4 20-10.7 28.2l211.4-7-2-66.5c-8.6-9.6-33.3-32.9-75.4-32.9zM811.9 389l-293.2-9.7 3.5-117.1 3.3-4.8c1.5-2.2 15.2-21.7 42.4-36.7 25.2-14 67.3-26.5 124.1-6.9 44.7 15.4 79.3 46.7 100.1 90.6 15.5 32.7 18 61.1 18.1 62.3l1.7 22.3z m-252.1-48.4l205.8 6.8c-2.2-7.9-5.5-17.3-10.3-27.2-16.4-33.8-42.1-56.9-76.4-68.7-34.4-11.9-65.3-10.5-91.7 4.1-12.6 6.9-21.1 15.4-25.4 20.2l-2 64.8z" fill="#424649" p-id="5184"></path><path d="M380.4 261.9s34.3-33.7 121.8-33.7c96.8 0 118.7 36.3 118.7 36.3s34.4 28.5 3.1 64.8C600.3 356.8 508.4 420 508.4 420s-90.6-44-131.2-88.1c-34.8-37.9 3.2-70 3.2-70z" fill="#FFFFFF" p-id="5185"></path><path d="M463 257.5s40.4-19.9 60.4-19.3c96.8 3 107 24.2 107 24.2s34.4 28.5 3.1 64.8c-23.7 27.5-99.5 65.6-99.5 65.6s-33.5-21.3-74.1-65.4c-34.9-37.8 3.1-69.9 3.1-69.9z" fill="#E4EADC" p-id="5186"></path><path d="M510.2 444l-10.5-5.1c-3.8-1.9-94.5-46.2-137.2-92.5-17.9-19.4-20.7-38.1-19.9-50.4 1.7-26.5 20.3-44.3 24.3-47.9 2.9-2.7 13.4-11.7 33.6-20.4 28.4-12.3 62.6-18.5 101.7-18.5 43.4 0 78.7 6.9 104.8 20.4 16.5 8.5 25.1 17.7 28.8 22.5 5.6 5.3 19.2 20.4 21.1 42.2 1 11.8-1.3 29.9-17.8 49-24.7 28.6-109.8 87.5-119.4 94.1l-9.5 6.6zM393.3 278.2c-3 2.7-10.3 11.2-10.8 20.5-0.3 6.6 2.7 13.4 9.4 20.6 29.8 32.4 90.6 65.8 114.9 78.4 29.8-20.9 86-61.9 102-80.5 10-11.7 8.9-19.6 7.1-24.6-2.3-6.5-7.2-11.2-7.9-11.8l-3.5-2.7-0.7-2c-3-3.5-26.1-26.9-101.7-26.9-40.3 0-67.6 7.7-83.4 14.2-15.8 6.5-23.5 13-24.5 13.9l-0.8 0.8-0.1 0.1z m-12.9-15.3z" fill="#424649" p-id="5187"></path></svg>